<?xml version="1.0" encoding="UTF-8" standalone="no"?>
<!-- Created with Inkscape (http://www.inkscape.org/) -->

<svg
   width="784.44666"
   height="784.44653"
   id="svg17087"
   version="1.1"
   style="enable-background:new"
   xmlns="http://www.w3.org/2000/svg"
   xmlns:svg="http://www.w3.org/2000/svg"
   xmlns:rdf="http://www.w3.org/1999/02/22-rdf-syntax-ns#"
   xmlns:cc="http://creativecommons.org/ns#"
   xmlns:dc="http://purl.org/dc/elements/1.1/">
  <defs
     id="defs17089" />
  <metadata
     id="metadata17092">
    <rdf:RDF>
      <cc:Work
         rdf:about="">
        <dc:format>image/svg+xml</dc:format>
        <dc:type
           rdf:resource="http://purl.org/dc/dcmitype/StillImage" />
      </cc:Work>
    </rdf:RDF>
  </metadata>
  <g
     id="g42"
     style="display:inline;"
     transform="translate(837.7608,51.391529)">
    <g
       id="g35"
       style="display:none;enable-background:new">
      <g
         id="g34"
         style="display:inline;stroke:#000000;stroke-width:0.5;stroke-dasharray:none;stroke-opacity:1">
        <g
           id="g29"
           style="stroke-width:0.5;stroke-dasharray:none">
          <rect
             style="color:#000000;display:inline;overflow:visible;visibility:visible;fill:none;stroke:#000000;stroke-width:0.5;stroke-linecap:round;stroke-linejoin:round;stroke-miterlimit:4;stroke-dasharray:none;stroke-dashoffset:0;stroke-opacity:1;marker:none;enable-background:accumulate"
             id="rect22"
             width="17.716536"
             height="17.716536"
             x="-526.36737"
             y="-58.737122"
             transform="matrix(0.70710678,-0.70710678,-0.70710678,-0.70710678,0,0)" />
          <rect
             y="-76.453674"
             x="-526.36737"
             height="17.716545"
             width="17.716536"
             id="rect23"
             style="color:#000000;display:inline;overflow:visible;visibility:visible;fill:none;stroke:#000000;stroke-width:0.5;stroke-linecap:round;stroke-linejoin:round;stroke-miterlimit:4;stroke-dasharray:none;stroke-dashoffset:0;stroke-opacity:1;marker:none;enable-background:accumulate"
             transform="matrix(0.70710678,-0.70710678,-0.70710678,-0.70710678,0,0)" />
          <rect
             style="color:#000000;display:inline;overflow:visible;visibility:visible;fill:none;stroke:#000000;stroke-width:0.5;stroke-linecap:round;stroke-linejoin:round;stroke-miterlimit:4;stroke-dasharray:none;stroke-dashoffset:0;stroke-opacity:1;marker:none;enable-background:accumulate"
             id="rect24"
             width="35.433071"
             height="35.433071"
             x="-561.80042"
             y="-76.453674"
             transform="matrix(0.70710678,-0.70710678,-0.70710678,-0.70710678,0,0)" />
          <rect
             style="color:#000000;display:inline;overflow:visible;visibility:visible;fill:none;stroke:#000000;stroke-width:0.5;stroke-linecap:round;stroke-linejoin:round;stroke-miterlimit:4;stroke-dasharray:none;stroke-dashoffset:0;stroke-opacity:1;marker:none;enable-background:accumulate"
             id="rect25"
             width="53.149605"
             height="53.149605"
             x="-561.80042"
             y="-41.020569"
             transform="matrix(0.70710678,-0.70710678,-0.70710678,-0.70710678,0,0)" />
          <rect
             style="color:#000000;display:inline;overflow:visible;visibility:visible;fill:none;stroke:#000000;stroke-width:0.5;stroke-linecap:round;stroke-linejoin:round;stroke-miterlimit:4;stroke-dasharray:none;stroke-dashoffset:0;stroke-opacity:1;marker:none;enable-background:accumulate"
             id="rect26"
             width="88.58268"
             height="88.58268"
             x="-508.65085"
             y="-76.453674"
             transform="matrix(0.70710678,-0.70710678,-0.70710678,-0.70710678,0,0)" />
          <rect
             style="color:#000000;display:inline;overflow:visible;visibility:visible;fill:none;stroke:#000000;stroke-width:0.5;stroke-linecap:round;stroke-linejoin:round;stroke-miterlimit:4;stroke-dasharray:none;stroke-dashoffset:0;stroke-opacity:1;marker:none;enable-background:accumulate"
             id="rect27"
             width="141.7328"
             height="141.73233"
             x="-561.80054"
             y="-218.18597"
             transform="matrix(0.70710678,-0.70710678,-0.70710678,-0.70710678,0,0)" />
          <rect
             style="color:#000000;display:inline;overflow:visible;visibility:visible;fill:none;stroke:#000000;stroke-width:0.5;stroke-linecap:round;stroke-linejoin:round;stroke-miterlimit:4;stroke-dasharray:none;stroke-dashoffset:0;stroke-opacity:1;marker:none;enable-background:accumulate"
             id="rect28"
             width="230.31496"
             height="230.31496"
             x="-792.11542"
             y="-218.18597"
             transform="matrix(0.70710678,-0.70710678,-0.70710678,-0.70710678,0,0)" />
          <rect
             style="color:#000000;display:inline;overflow:visible;visibility:visible;fill:none;stroke:#000000;stroke-width:0.5;stroke-linecap:round;stroke-linejoin:round;stroke-miterlimit:4;stroke-dasharray:none;stroke-dashoffset:0;stroke-opacity:1;marker:none;enable-background:accumulate"
             id="rect29"
             width="372.04724"
             height="372.04724"
             x="-792.11542"
             y="12.128967"
             transform="matrix(0.70710678,-0.70710678,-0.70710678,-0.70710678,0,0)" />
        </g>
        <rect
           transform="matrix(0.70710678,-0.70710678,-0.70710678,-0.70710678,0,0)"
           y="12.128967"
           x="-792.11975"
           height="372.04724"
           width="526.15295"
           id="rect30"
           style="color:#000000;display:inline;overflow:visible;visibility:visible;fill:none;stroke:#000000;stroke-width:0.5;stroke-linecap:round;stroke-linejoin:round;stroke-miterlimit:4;stroke-dasharray:none;stroke-dashoffset:0;stroke-opacity:1;marker:none;enable-background:accumulate" />
        <rect
           style="color:#000000;display:inline;overflow:visible;visibility:visible;fill:none;stroke:#000000;stroke-width:0.5;stroke-linecap:round;stroke-linejoin:round;stroke-miterlimit:4;stroke-dasharray:none;stroke-dashoffset:0;stroke-opacity:1;marker:none;enable-background:accumulate"
           id="rect31"
           width="526.15295"
           height="372.04724"
           x="-384.1857"
           y="-792.11426"
           transform="matrix(0.70710678,0.70710678,0.70710678,-0.70710678,0,0)" />
        <g
           id="g33"
           style="display:inline;stroke:#000000;stroke-width:0.5;stroke-dasharray:none;stroke-opacity:1"
           transform="matrix(1.0077909,0,0,1.0077909,0.82087617,-1.9181466)">
          <rect
             style="color:#000000;display:inline;overflow:visible;visibility:visible;fill:none;stroke:#000000;stroke-width:0.5;stroke-dasharray:none;stroke-opacity:1;marker:none;enable-background:accumulate"
             id="rect32"
             width="630.73926"
             height="630.7392"
             x="-771.70477"
             y="25.095413" />
          <rect
             y="25.095413"
             x="-771.70477"
             height="571.34222"
             width="630.73926"
             id="rect33"
             style="color:#000000;display:inline;overflow:visible;visibility:visible;fill:none;stroke:#000000;stroke-width:0.5;stroke-dasharray:none;stroke-opacity:1;marker:none;enable-background:accumulate" />
        </g>
      </g>
      <circle
         style="color:#000000;display:none;overflow:visible;visibility:visible;fill:#9cff01;fill-opacity:0.107936;fill-rule:nonzero;stroke:#000000;stroke-width:0.5;stroke-dasharray:none;stroke-opacity:1;marker:none;enable-background:accumulate"
         id="circle34"
         cx="-459.61942"
         cy="339.59854"
         r="316.78384"
         transform="matrix(1.0034965,0,0,1.0034965,1.6889424,0.0452674)" />
    </g>
    <g
       id="g41"
       style="display:inline">
      <circle
         style="fill:#b3ff80;fill-opacity:0.25;stroke-width:1.19128;stroke-linecap:round"
         id="path1"
         cx="-445.53754"
         cy="340.83173"
         r="392.2233" />
      <g
         id="g1">
        <path
           id="circle42"
           style="color:#000000;display:inline;overflow:visible;visibility:visible;fill:#000000;fill-opacity:1;fill-rule:nonzero;stroke:none;stroke-width:0.594142;stroke-dasharray:none;stroke-opacity:1;marker:none;enable-background:accumulate"
           d="M -445.53753,-35.59795 A 376.42947,376.42947 0 0 0 -821.96722,340.83174 376.42947,376.42947 0 0 0 -445.53753,717.26142 376.42947,376.42947 0 0 0 -69.107844,340.83174 376.42947,376.42947 0 0 0 -124.78753,143.8083 c -1.78228,4.07934 -2.64173,8.05003 -0.86719,11.30469 6.08114,10.91448 7.67428,24.16505 4.58594,36.25 -2.37416,9.62481 -7.78833,18.4255 -15.17578,25.01367 a 333.39331,333.39331 0 0 1 6.72656,20.37891 c 0.96633,2.2182 1.78754,4.49786 2.4043,6.84179 0.11845,0.4349 0.18277,0.88236 0.28906,1.32031 a 333.39331,333.39331 0 0 1 14.67969,95.91407 333.39331,333.39331 0 0 1 -333.39258,333.39258 333.39331,333.39331 0 0 1 -333.39258,-333.39258 333.39331,333.39331 0 0 1 185.6582,-298.875003 c 10.73383,-5.675698 21.76753,-10.778411 33.04102,-15.273437 35.80278,-14.286802 74.16159,-22.4022562 112.74219,-22.9277344 9.91424,-0.084121 19.834,0.2970939 29.70507,1.2324219 25.39513,2.3785882 50.52846,8.4148215 74.02735,18.3652345 a 333.39331,333.39331 0 0 1 93.74609,47.439453 c 5.43081,-5.530502 12.14109,-9.817106 19.47461,-12.332031 11.25764,-3.984579 23.92132,-3.523446 34.97266,0.925781 A 376.42947,376.42947 0 0 0 -445.53753,-35.59795 Z" />
        <path
           id="path43"
           style="color:#000000;display:inline;overflow:visible;visibility:visible;fill:#000000;fill-opacity:1;stroke:none;stroke-width:2;marker:none;enable-background:accumulate"
           d="m -481.19185,129.62711 a 173.86481,212.82954 58.466289 0 0 -127.58632,45.24319 173.86481,212.82954 58.466289 0 0 -70.49994,261.49194 173.86481,212.82954 58.466289 0 0 133.48507,63.53327 74.98753,74.98753 0 0 0 -9.89321,37.2275 74.98753,74.98753 0 0 0 47.80431,69.88723 44.194172,44.194172 0 0 0 42.9593,33.81584 44.194172,44.194172 0 0 0 35.74219,-18.20187 c 47.15589,-10.23987 89.2296,-34.104 121.89705,-67.26153 l 0.074,0.0756 a 114.1129,114.1129 0 0 0 33.69456,-80.74912 114.1129,114.1129 0 0 0 -33.39372,-80.87198 l -80.71919,80.66091 37.18656,37.437 -70.52357,70.53774 a 74.98753,74.98753 0 0 0 15.25328,-45.32983 74.98753,74.98753 0 0 0 -31.98557,-61.43208 173.86481,212.82954 58.466289 0 0 36.59117,-21.34891 173.86481,212.82954 58.466289 0 0 70.49993,-261.49036 173.86481,212.82954 58.466289 0 0 -150.58593,-63.22455 z m 197.83108,41.57163 a 24.193548,24.193549 49.796503 0 0 -24.19355,24.19355 24.193548,24.193549 49.796503 0 0 24.19355,24.19355 24.193548,24.193549 49.796503 0 0 24.19355,-24.19355 24.193548,24.193549 49.796503 0 0 -24.19355,-24.19355 z m 36.10446,59.16552 a 24.193548,24.193549 49.796503 0 0 -24.19355,24.19354 24.193548,24.193549 49.796503 0 0 24.19355,24.19355 24.193548,24.193549 49.796503 0 0 24.19355,-24.19355 24.193548,24.193549 49.796503 0 0 -24.19355,-24.19354 z m -4.7064,62.5882 a 24.193548,24.193549 49.796503 0 0 -24.19355,24.19355 24.193548,24.193549 49.796503 0 0 24.19355,24.19355 24.193548,24.193549 49.796503 0 0 24.19355,-24.19355 24.193548,24.193549 49.796503 0 0 -24.19355,-24.19355 z m -222.3239,8.02672 h 38.44821 38.44978 a 38.448613,38.448613 0 0 1 -19.2241,33.29763 38.448613,38.448613 0 0 1 -38.44979,0 38.448613,38.448613 0 0 1 -19.2241,-33.29763 z m -94.44935,83.06451 h 38.44821 38.44821 a 38.448613,38.448613 0 0 1 -19.2241,33.29763 38.448613,38.448613 0 0 1 -38.44821,0 38.448613,38.448613 0 0 1 -19.22411,-33.29763 z"
           transform="matrix(1.24,0,0,1.24,137.0974,-136.5758)" />
      </g>
    </g>
  </g>
</svg>
